<?xml version="1.0" encoding="UTF-8" standalone="no"?>
<svg
   viewBox="0 0 386.91799 546.133"
   version="1.1"
   id="svg5"
   width="386.918"
   height="546.133"
   xmlns="http://www.w3.org/2000/svg"
   xmlns:svg="http://www.w3.org/2000/svg"
   xmlns:rdf="http://www.w3.org/1999/02/22-rdf-syntax-ns#"
   xmlns:cc="http://creativecommons.org/ns#"
   xmlns:dc="http://purl.org/dc/elements/1.1/">
  <defs
     id="defs5" />
  <title
     id="title1">HTML5 Logo</title>
  <path
     d="M 37.622711,1.8637769 H 61.922423 V 26.074714 H 84.320419 V 1.8637769 H 108.62012 V 75.133719 H 84.320419 V 50.710405 H 62.133726 V 75.133719 H 37.622711 M 140.73801,26.287091 H 119.29087 V 1.8637769 h 67.29964 V 26.287091 H 165.03772 V 75.133719 H 140.73801 M 197.26125,1.8637769 h 25.46188 L 238.35946,27.667539 253.9958,1.8637769 h 25.46187 V 75.133719 H 255.15795 V 38.817313 L 238.14816,65.152017 221.13836,38.817313 V 75.133719 H 197.26125 M 291.50187,1.8637769 h 24.29972 V 50.922782 h 34.4422 v 24.210937 h -58.74192"
     id="path1"
     style="stroke-width:1.0592" />
  <path
     fill="#e44d26"
     d="M 36.777504,502.01078 1.9126994,108.68923 H 385.21424 l -34.8648,393.10917 -157.10293,43.74959"
     id="path2"
     style="stroke-width:1.0592" />
  <path
     fill="#f16529"
     d="M 193.56347,512.09867 V 140.97048 h 156.68032 l -29.89921,335.5551"
     id="path3"
     style="stroke-width:1.0592" />
  <path
     fill="#ebebeb"
     d="M 73.121421,189.07379 H 193.56347 v 48.2095 h -67.82789 l 4.43734,49.37757 h 63.39055 v 48.10331 H 86.222135 m 2.113019,24.21094 h 48.176816 l 3.38083,38.54636 53.67067,14.44161 v 50.33326 L 95.096804,434.68738"
     id="path4"
     style="stroke-width:1.0592" />
  <path
     fill="#ffffff"
     d="M 313.58291,189.07379 H 193.35216 v 48.2095 h 115.79342 m -4.33169,49.37757 H 193.35216 v 48.2095 h 59.16452 l -5.5995,62.65111 -53.56502,14.44161 v 50.12089 l 98.25536,-27.39659"
     id="path5"
     style="stroke-width:1.0592" />
  <metadata
     id="metadata5">
    <rdf:RDF>
      <cc:Work
         rdf:about="">
        <dc:title>HTML5 Logo</dc:title>
      </cc:Work>
    </rdf:RDF>
  </metadata>
</svg>
